<svg width="512" height="512" viewBox="0 0 512 512" fill="none" xmlns="http://www.w3.org/2000/svg">
  <defs>
    <clipPath id="favicon-round-clip">
      <rect x="16" y="16" width="480" height="480" rx="112" ry="112" />
    </clipPath>
  </defs>
  <g clip-path="url(#favicon-round-clip)">
    <rect x="16" y="16" width="480" height="480" rx="112" ry="112" fill="#54A1E7" />
    <path d="M158.733 295.394C159.481 290.977 159.107 287.27 157.611 284.269C156.198 281.186 154.037 278.602 151.128 276.519C148.302 274.353 145.102 272.519 141.529 271.02C138.038 269.519 134.547 268.144 131.057 266.895C124.657 264.394 118.341 261.561 112.107 258.394C105.957 255.228 100.347 251.477 95.2771 247.144C90.2073 242.727 86.2595 237.602 83.4337 231.77C80.6079 225.853 79.4443 218.935 79.943 211.019C80.5247 202.019 83.0596 194.228 87.5477 187.644C92.0357 181.061 97.7288 175.686 104.627 171.519C111.608 167.269 119.172 164.144 127.317 162.144C135.545 160.144 143.607 159.228 151.502 159.394C162.805 159.561 172.861 161.936 181.672 166.519C190.482 171.019 197.38 177.436 202.366 185.769C207.437 194.019 209.805 203.936 209.472 215.52H173.319C173.651 210.019 172.945 205.269 171.199 201.269C169.537 197.186 166.836 194.061 163.096 191.894C159.439 189.644 154.743 188.436 149.009 188.269C144.105 188.186 139.285 188.978 134.547 190.644C129.893 192.228 125.862 194.728 122.455 198.144C119.13 201.478 117.052 205.811 116.221 211.144C115.556 215.06 116.097 218.436 117.842 221.269C119.67 224.102 122.122 226.519 125.197 228.519C128.356 230.519 131.68 232.228 135.171 233.644C138.744 234.977 141.944 236.186 144.77 237.269C151.502 239.686 157.985 242.561 164.218 245.894C170.535 249.227 176.103 253.186 180.924 257.769C185.744 262.269 189.443 267.603 192.019 273.769C194.596 279.852 195.634 286.936 195.135 295.02C194.387 304.269 191.895 312.186 187.655 318.77C183.417 325.269 177.932 330.603 171.199 334.77C164.467 338.853 157.112 341.852 149.134 343.77C141.155 345.686 133.051 346.603 124.823 346.519C115.847 346.353 107.411 344.936 99.5158 342.269C91.6202 339.603 84.7219 335.77 78.821 330.769C72.9201 325.686 68.3489 319.478 65.1076 312.144C61.9493 304.728 60.4948 296.269 60.7442 286.77L97.2717 286.894C96.9393 291.977 97.3133 296.436 98.3938 300.269C99.5573 304.019 101.386 307.185 103.879 309.769C106.456 312.352 109.614 314.311 113.354 315.645C117.177 316.894 121.623 317.561 126.693 317.644C131.597 317.644 136.334 316.894 140.905 315.395C145.477 313.894 149.383 311.52 152.624 308.269C155.866 304.936 157.901 300.644 158.733 295.394ZM317.011 314.644L311.9 343.894H223.011L228.123 314.644H317.011ZM266.52 161.894L234.98 343.894H198.452L229.868 161.894H266.52ZM401.86 161.894L370.444 343.894H333.916L365.456 161.894H401.86ZM455.965 161.894L450.854 191.269H307.113L312.223 161.894H455.965Z" fill="white" />
  </g>
</svg>
