<svg width="1435" height="300" viewBox="0 0 1435 300" fill="none" xmlns="http://www.w3.org/2000/svg">
<path d="M120.811 196.164C121.689 190.988 121.25 186.643 119.492 183.127C117.832 179.514 115.293 176.486 111.875 174.045C108.555 171.506 104.795 169.357 100.596 167.6C96.4941 165.842 92.3926 164.23 88.291 162.766C80.7715 159.836 73.3496 156.516 66.0254 152.805C58.7988 149.094 52.207 144.699 46.25 139.621C40.293 134.445 35.6543 128.439 32.334 121.604C29.0137 114.67 27.6465 106.564 28.2324 97.2871C28.916 86.7402 31.8945 77.6094 37.168 69.8945C42.4414 62.1797 49.1309 55.8809 57.2363 50.998C65.4395 46.0176 74.3262 42.3555 83.8965 40.0117C93.5645 37.668 103.037 36.5938 112.314 36.7891C125.596 36.9844 137.412 39.7676 147.764 45.1387C158.115 50.4121 166.221 57.9316 172.08 67.6973C178.037 77.3652 180.82 88.9863 180.43 102.561H137.949C138.34 96.1152 137.51 90.5488 135.459 85.8613C133.506 81.0762 130.332 77.4141 125.938 74.875C121.641 72.2383 116.123 70.8223 109.385 70.627C103.623 70.5293 97.959 71.457 92.3926 73.4102C86.9238 75.2656 82.1875 78.1953 78.1836 82.1992C74.2773 86.1055 71.8359 91.1836 70.8594 97.4336C70.0781 102.023 70.7129 105.979 72.7637 109.299C74.9121 112.619 77.793 115.451 81.4062 117.795C85.1172 120.139 89.0234 122.141 93.125 123.801C97.3242 125.363 101.084 126.779 104.404 128.049C112.314 130.881 119.932 134.25 127.256 138.156C134.678 142.062 141.221 146.701 146.885 152.072C152.549 157.346 156.895 163.596 159.922 170.822C162.949 177.951 164.17 186.252 163.584 195.725C162.705 206.564 159.775 215.842 154.795 223.557C149.814 231.174 143.369 237.424 135.459 242.307C127.549 247.092 118.906 250.607 109.531 252.854C100.156 255.1 90.6348 256.174 80.9668 256.076C70.4199 255.881 60.5078 254.221 51.2305 251.096C41.9531 247.971 33.8477 243.479 26.9141 237.619C19.9805 231.662 14.6094 224.387 10.8008 215.793C7.08984 207.102 5.38086 197.189 5.67383 186.057L48.5938 186.203C48.2031 192.16 48.6426 197.385 49.9121 201.877C51.2793 206.271 53.4277 209.982 56.3574 213.01C59.3848 216.037 63.0957 218.332 67.4902 219.895C71.9824 221.359 77.207 222.141 83.1641 222.238C88.9258 222.238 94.4922 221.359 99.8633 219.602C105.234 217.844 109.824 215.061 113.633 211.252C117.441 207.346 119.834 202.316 120.811 196.164ZM282.178 78.3906L196.338 253H149.17L263.135 39.7188H293.311L282.178 78.3906ZM299.17 253L273.096 73.8496L274.707 39.7188H302.979L343.262 253H299.17ZM310.01 173.605L304.004 208.029H194.287L200.293 173.605H310.01ZM496.865 39.7188H539.639L515.615 180.49C513.369 196.311 508.145 209.934 499.941 221.359C491.836 232.688 481.387 241.379 468.594 247.434C455.898 253.391 441.592 256.271 425.674 256.076C410.83 255.783 397.891 252.561 386.855 246.408C375.918 240.158 367.715 231.467 362.246 220.334C356.777 209.104 354.971 195.871 356.826 180.637L380.85 39.7188H423.623L399.746 180.783C398.867 188.107 399.111 194.846 400.479 200.998C401.943 207.053 404.873 211.984 409.268 215.793C413.76 219.504 420.107 221.457 428.311 221.652C437.002 221.945 444.424 220.383 450.576 216.965C456.729 213.547 461.66 208.713 465.371 202.463C469.082 196.115 471.572 188.84 472.842 180.637L496.865 39.7188ZM640.068 196.164C640.947 190.988 640.508 186.643 638.75 183.127C637.09 179.514 634.551 176.486 631.133 174.045C627.812 171.506 624.053 169.357 619.854 167.6C615.752 165.842 611.65 164.23 607.549 162.766C600.029 159.836 592.607 156.516 585.283 152.805C578.057 149.094 571.465 144.699 565.508 139.621C559.551 134.445 554.912 128.439 551.592 121.604C548.271 114.67 546.904 106.564 547.49 97.2871C548.174 86.7402 551.152 77.6094 556.426 69.8945C561.699 62.1797 568.389 55.8809 576.494 50.998C584.697 46.0176 593.584 42.3555 603.154 40.0117C612.822 37.668 622.295 36.5938 631.572 36.7891C644.854 36.9844 656.67 39.7676 667.021 45.1387C677.373 50.4121 685.479 57.9316 691.338 67.6973C697.295 77.3652 700.078 88.9863 699.688 102.561H657.207C657.598 96.1152 656.768 90.5488 654.717 85.8613C652.764 81.0762 649.59 77.4141 645.195 74.875C640.898 72.2383 635.381 70.8223 628.643 70.627C622.881 70.5293 617.217 71.457 611.65 73.4102C606.182 75.2656 601.445 78.1953 597.441 82.1992C593.535 86.1055 591.094 91.1836 590.117 97.4336C589.336 102.023 589.971 105.979 592.021 109.299C594.17 112.619 597.051 115.451 600.664 117.795C604.375 120.139 608.281 122.141 612.383 123.801C616.582 125.363 620.342 126.779 623.662 128.049C631.572 130.881 639.189 134.25 646.514 138.156C653.936 142.062 660.479 146.701 666.143 152.072C671.807 157.346 676.152 163.596 679.18 170.822C682.207 177.951 683.428 186.252 682.842 195.725C681.963 206.564 679.033 215.842 674.053 223.557C669.072 231.174 662.627 237.424 654.717 242.307C646.807 247.092 638.164 250.607 628.789 252.854C619.414 255.1 609.893 256.174 600.225 256.076C589.678 255.881 579.766 254.221 570.488 251.096C561.211 247.971 553.105 243.479 546.172 237.619C539.238 231.662 533.867 224.387 530.059 215.793C526.348 207.102 524.639 197.189 524.932 186.057L567.852 186.203C567.461 192.16 567.9 197.385 569.17 201.877C570.537 206.271 572.686 209.982 575.615 213.01C578.643 216.037 582.354 218.332 586.748 219.895C591.24 221.359 596.465 222.141 602.422 222.238C608.184 222.238 613.75 221.359 619.121 219.602C624.492 217.844 629.082 215.061 632.891 211.252C636.699 207.346 639.092 202.316 640.068 196.164ZM801.436 78.3906L715.596 253H668.428L782.393 39.7188H812.568L801.436 78.3906ZM818.428 253L792.354 73.8496L793.965 39.7188H822.236L862.52 253H818.428ZM829.268 173.605L823.262 208.029H713.545L719.551 173.605H829.268ZM1006.75 218.723L1000.74 253H896.299L902.305 218.723H1006.75ZM947.422 39.7188L910.361 253H867.441L904.355 39.7188H947.422ZM1092.68 39.7188L1055.76 253H1012.84L1049.9 39.7188H1092.68ZM1205.7 39.7188L1168.79 253H1125.87L1162.93 39.7188H1205.7ZM1269.28 39.7188L1263.27 74.1426H1094.38L1100.38 39.7188H1269.28ZM1426.54 140.646L1425.37 150.9C1423.42 164.572 1419.76 177.756 1414.38 190.451C1409.01 203.146 1401.98 214.475 1393.29 224.436C1384.6 234.299 1374.25 242.111 1362.24 247.873C1350.32 253.537 1336.8 256.223 1321.66 255.93C1307.21 255.637 1294.95 252.512 1284.89 246.555C1274.93 240.5 1267.02 232.492 1261.16 222.531C1255.4 212.57 1251.54 201.486 1249.59 189.279C1247.64 176.975 1247.44 164.377 1249 151.486L1250.18 141.379C1252.13 127.707 1255.79 114.572 1261.16 101.975C1266.63 89.377 1273.71 78.1465 1282.4 68.2832C1291.19 58.3223 1301.54 50.5098 1313.46 44.8457C1325.47 39.1816 1338.95 36.4961 1353.89 36.7891C1368.34 36.9844 1380.55 40.1094 1390.51 46.1641C1400.57 52.1211 1408.48 60.0801 1414.24 70.041C1420.1 79.9043 1424 90.9883 1425.96 103.293C1427.91 115.5 1428.11 127.951 1426.54 140.646ZM1381.87 151.486L1383.33 140.939C1384.11 134.299 1384.5 127.121 1384.5 119.406C1384.6 111.594 1383.72 104.123 1381.87 96.9941C1380.01 89.7676 1376.69 83.8594 1371.9 79.2695C1367.22 74.582 1360.43 72.043 1351.54 71.6523C1341.97 71.3594 1333.77 73.2637 1326.93 77.3652C1320.2 81.4668 1314.53 87.0332 1309.94 94.0645C1305.45 100.998 1301.88 108.615 1299.25 116.916C1296.71 125.119 1294.85 133.176 1293.68 141.086L1292.36 151.633C1291.48 158.176 1291 165.402 1290.9 173.312C1290.9 181.125 1291.83 188.645 1293.68 195.871C1295.54 203 1298.86 208.908 1303.64 213.596C1308.43 218.283 1315.26 220.822 1324.15 221.213C1333.62 221.506 1341.73 219.553 1348.47 215.354C1355.3 211.154 1361.02 205.588 1365.61 198.654C1370.2 191.623 1373.81 184.006 1376.45 175.803C1379.08 167.502 1380.89 159.396 1381.87 151.486Z" fill="#54A1E7"/>
</svg>
