<svg width="1361" height="250" viewBox="0 0 1361 250" fill="none" xmlns="http://www.w3.org/2000/svg">
<path d="M66.1533 224.5C54.9867 224.5 45.6533 223.5 38.1533 221.5C30.6533 219.333 24.6533 216.583 20.1533 213.25C15.6533 209.75 12.4033 205.917 10.4033 201.75C8.56999 197.583 7.65332 193.5 7.65332 189.5C7.65332 183.833 8.98665 179.333 11.6533 176C14.32 172.5 17.82 170 22.1533 168.5C26.4867 167 31.07 166.25 35.9033 166.25C35.9033 175.75 37.32 183.75 40.1533 190.25C43.1533 196.583 47.2367 201.417 52.4033 204.75C57.57 207.917 63.4867 209.5 70.1533 209.5C79.9867 209.5 87.57 206.917 92.9033 201.75C98.4033 196.583 101.153 190.167 101.153 182.5C101.153 176.833 99.57 172 96.4033 168C93.4033 163.833 88.82 160.083 82.6533 156.75C76.4867 153.25 68.7367 149.583 59.4033 145.75C50.7367 142.25 43.4033 138.583 37.4033 134.75C31.4033 130.917 26.57 126.833 22.9033 122.5C19.2367 118 16.57 113.25 14.9033 108.25C13.4033 103.083 12.6533 97.4167 12.6533 91.25C12.6533 81.0833 15.32 72.25 20.6533 64.75C25.9867 57.25 33.2367 51.4167 42.4033 47.25C51.7367 43.0833 62.2367 41 73.9033 41C86.2367 41 96.32 42.3333 104.153 45C111.987 47.5 117.737 50.9167 121.403 55.25C125.237 59.5833 127.153 64.5 127.153 70C127.153 75.8333 124.57 80.75 119.403 84.75C114.403 88.75 106.737 90.75 96.4033 90.75C96.4033 86.0833 95.4867 81.0833 93.6533 75.75C91.9867 70.4167 89.2367 65.8333 85.4033 62C81.57 58.1667 76.4033 56.25 69.9033 56.25C65.4033 56.25 61.2367 57.1667 57.4033 59C53.7367 60.6667 50.7367 63.25 48.4033 66.75C46.2367 70.0833 45.1533 74.25 45.1533 79.25C45.1533 83.9167 46.2367 88.25 48.4033 92.25C50.57 96.25 54.6533 100.25 60.6533 104.25C66.6533 108.083 75.2367 112.25 86.4033 116.75C97.9033 121.417 107.153 126.25 114.153 131.25C121.153 136.25 126.237 141.917 129.403 148.25C132.57 154.417 134.153 161.583 134.153 169.75C134.153 180.417 131.32 189.917 125.653 198.25C120.153 206.417 112.32 212.833 102.153 217.5C91.9867 222.167 79.9867 224.5 66.1533 224.5ZM130.255 222V208.75H133.255C136.255 208.75 138.922 208.25 141.255 207.25C143.588 206.25 145.672 204.5 147.505 202C149.505 199.333 151.422 195.5 153.255 190.5L207.505 43.5H241.755L294.005 190.75C295.672 195.417 297.422 199.083 299.255 201.75C301.255 204.25 303.338 206.083 305.505 207.25C307.838 208.25 310.338 208.75 313.005 208.75H317.505V222H235.005V208.75H244.755C247.255 208.75 249.672 208 252.005 206.5C254.338 205 255.505 202.5 255.505 199C255.505 197.667 255.338 196.333 255.005 195C254.838 193.667 254.588 192.417 254.255 191.25C253.922 190.083 253.588 189.083 253.255 188.25L244.505 163.25H183.755L176.505 184.75C176.172 186.083 175.755 187.583 175.255 189.25C174.755 190.917 174.338 192.667 174.005 194.5C173.672 196.167 173.505 197.667 173.505 199C173.505 202.167 174.672 204.583 177.005 206.25C179.338 207.917 181.922 208.75 184.755 208.75H195.255V222H130.255ZM189.005 148H239.505L226.255 107C225.088 103.167 223.838 99.0833 222.505 94.75C221.172 90.25 219.922 85.75 218.755 81.25C217.588 76.75 216.505 72.5833 215.505 68.75C214.838 71.4167 214.005 74.3333 213.005 77.5C212.005 80.5 211.005 83.6667 210.005 87C209.005 90.1667 207.922 93.4167 206.755 96.75C205.755 99.9167 204.755 102.917 203.755 105.75L189.005 148ZM396.854 224.5C382.354 224.5 369.938 222.583 359.604 218.75C349.271 214.917 341.354 208.833 335.854 200.5C330.354 192.167 327.604 181.167 327.604 167.5V72C327.604 67.5 327.021 64.1667 325.854 62C324.688 59.8333 323.104 58.4167 321.104 57.75C319.271 57.0833 317.188 56.75 314.854 56.75H304.104V43.5H390.354V56.75H379.854C377.521 56.75 375.354 57.1667 373.354 58C371.521 58.6667 370.021 60.1667 368.854 62.5C367.688 64.6667 367.104 68.1667 367.104 73V169.5C367.104 178.833 368.604 186.25 371.604 191.75C374.771 197.083 379.104 200.917 384.604 203.25C390.271 205.583 396.854 206.75 404.354 206.75C411.854 206.75 418.271 205.5 423.604 203C429.104 200.333 433.271 196.333 436.104 191C439.105 185.5 440.605 178.5 440.605 170V72C440.605 67.5 440.021 64.1667 438.854 62C437.688 59.8333 436.104 58.4167 434.104 57.75C432.271 57.0833 430.188 56.75 427.855 56.75H417.354V43.5H482.854V56.75H472.104C469.771 56.75 467.605 57.1667 465.605 58C463.771 58.6667 462.271 60.1667 461.105 62.5C459.938 64.6667 459.354 68.1667 459.354 73V170.5C459.354 181.667 457.188 191.333 452.854 199.5C448.521 207.5 441.771 213.667 432.604 218C423.438 222.333 411.521 224.5 396.854 224.5ZM540.372 224.5C529.205 224.5 519.872 223.5 512.372 221.5C504.872 219.333 498.872 216.583 494.372 213.25C489.872 209.75 486.622 205.917 484.622 201.75C482.789 197.583 481.872 193.5 481.872 189.5C481.872 183.833 483.205 179.333 485.872 176C488.539 172.5 492.039 170 496.372 168.5C500.705 167 505.289 166.25 510.122 166.25C510.122 175.75 511.539 183.75 514.372 190.25C517.372 196.583 521.455 201.417 526.622 204.75C531.789 207.917 537.705 209.5 544.372 209.5C554.205 209.5 561.789 206.917 567.122 201.75C572.622 196.583 575.372 190.167 575.372 182.5C575.372 176.833 573.789 172 570.622 168C567.622 163.833 563.039 160.083 556.872 156.75C550.705 153.25 542.955 149.583 533.622 145.75C524.955 142.25 517.622 138.583 511.622 134.75C505.622 130.917 500.789 126.833 497.122 122.5C493.455 118 490.789 113.25 489.122 108.25C487.622 103.083 486.872 97.4167 486.872 91.25C486.872 81.0833 489.539 72.25 494.872 64.75C500.205 57.25 507.455 51.4167 516.622 47.25C525.955 43.0833 536.455 41 548.122 41C560.455 41 570.539 42.3333 578.372 45C586.205 47.5 591.955 50.9167 595.622 55.25C599.455 59.5833 601.372 64.5 601.372 70C601.372 75.8333 598.789 80.75 593.622 84.75C588.622 88.75 580.955 90.75 570.622 90.75C570.622 86.0833 569.705 81.0833 567.872 75.75C566.205 70.4167 563.455 65.8333 559.622 62C555.789 58.1667 550.622 56.25 544.122 56.25C539.622 56.25 535.455 57.1667 531.622 59C527.955 60.6667 524.955 63.25 522.622 66.75C520.455 70.0833 519.372 74.25 519.372 79.25C519.372 83.9167 520.455 88.25 522.622 92.25C524.789 96.25 528.872 100.25 534.872 104.25C540.872 108.083 549.455 112.25 560.622 116.75C572.122 121.417 581.372 126.25 588.372 131.25C595.372 136.25 600.455 141.917 603.622 148.25C606.789 154.417 608.372 161.583 608.372 169.75C608.372 180.417 605.539 189.917 599.872 198.25C594.372 206.417 586.539 212.833 576.372 217.5C566.205 222.167 554.205 224.5 540.372 224.5ZM604.474 222V208.75H607.474C610.474 208.75 613.14 208.25 615.474 207.25C617.807 206.25 619.89 204.5 621.724 202C623.724 199.333 625.64 195.5 627.474 190.5L681.724 43.5H715.974L768.224 190.75C769.89 195.417 771.64 199.083 773.474 201.75C775.474 204.25 777.557 206.083 779.724 207.25C782.057 208.25 784.557 208.75 787.224 208.75H791.724V222H709.224V208.75H718.974C721.474 208.75 723.89 208 726.224 206.5C728.557 205 729.724 202.5 729.724 199C729.724 197.667 729.557 196.333 729.224 195C729.057 193.667 728.807 192.417 728.474 191.25C728.14 190.083 727.807 189.083 727.474 188.25L718.724 163.25H657.974L650.724 184.75C650.39 186.083 649.974 187.583 649.474 189.25C648.974 190.917 648.557 192.667 648.224 194.5C647.89 196.167 647.724 197.667 647.724 199C647.724 202.167 648.89 204.583 651.224 206.25C653.557 207.917 656.14 208.75 658.974 208.75H669.474V222H604.474ZM663.224 148H713.724L700.474 107C699.307 103.167 698.057 99.0833 696.724 94.75C695.39 90.25 694.14 85.75 692.974 81.25C691.807 76.75 690.724 72.5833 689.724 68.75C689.057 71.4167 688.224 74.3333 687.224 77.5C686.224 80.5 685.224 83.6667 684.224 87C683.224 90.1667 682.14 93.4167 680.974 96.75C679.974 99.9167 678.974 102.917 677.974 105.75L663.224 148ZM786.206 222V208.75H796.706C799.206 208.75 801.373 208.417 803.206 207.75C805.206 206.917 806.706 205.333 807.706 203C808.873 200.667 809.456 197.167 809.456 192.5V73C809.456 68.1667 808.873 64.6667 807.706 62.5C806.706 60.1667 805.206 58.6667 803.206 58C801.373 57.1667 799.206 56.75 796.706 56.75H786.206V43.5H872.456V56.75H861.956C859.623 56.75 857.456 57.0833 855.456 57.75C853.623 58.4167 852.123 59.8333 850.956 62C849.789 64.1667 849.206 67.5 849.206 72V206.75H895.706C899.539 206.75 902.789 205.917 905.456 204.25C908.289 202.583 910.539 200.167 912.206 197C914.039 193.667 915.456 189.667 916.456 185L920.456 166.25H934.456L932.706 222H786.206ZM937.28 222V208.75H947.78C950.28 208.75 952.447 208.417 954.28 207.75C956.28 206.917 957.78 205.333 958.78 203C959.947 200.667 960.53 197.167 960.53 192.5V73C960.53 68.1667 959.947 64.6667 958.78 62.5C957.78 60.1667 956.28 58.6667 954.28 58C952.447 57.1667 950.28 56.75 947.78 56.75H937.28V43.5H1023.53V56.75H1013.03C1010.7 56.75 1008.53 57.1667 1006.53 58C1004.53 58.6667 1002.95 60.1667 1001.78 62.5C1000.78 64.6667 1000.28 68.1667 1000.28 73V192.5C1000.28 197.167 1000.78 200.667 1001.78 203C1002.95 205.333 1004.53 206.917 1006.53 207.75C1008.53 208.417 1010.7 208.75 1013.03 208.75H1023.53V222H937.28ZM1056.62 222V208.75H1067.12C1069.62 208.75 1071.79 208.417 1073.62 207.75C1075.62 206.917 1077.12 205.333 1078.12 203C1079.29 200.667 1079.87 197.167 1079.87 192.5V58.75H1059.87C1054.87 58.75 1050.96 59.5 1048.12 61C1045.29 62.3333 1043.21 64.3333 1041.87 67C1040.54 69.6667 1039.62 72.8333 1039.12 76.5L1037.37 92H1020.62L1021.87 43.5H1177.62L1178.87 92H1162.12L1160.37 76.5C1160.04 72.8333 1159.12 69.6667 1157.62 67C1156.29 64.3333 1154.21 62.3333 1151.37 61C1148.54 59.5 1144.62 58.75 1139.62 58.75H1119.62V192.5C1119.62 197.167 1120.12 200.667 1121.12 203C1122.29 205.333 1123.87 206.917 1125.87 207.75C1127.87 208.417 1130.04 208.75 1132.37 208.75H1142.87V222H1056.62ZM1262.57 224.5C1243.57 224.5 1227.82 220.667 1215.32 213C1202.82 205.333 1193.4 194.583 1187.07 180.75C1180.9 166.917 1177.82 150.75 1177.82 132.25C1177.82 113.75 1180.9 97.6667 1187.07 84C1193.4 70.3333 1202.82 59.75 1215.32 52.25C1227.99 44.5833 1243.82 40.75 1262.82 40.75C1280.82 40.75 1296.07 44.5833 1308.57 52.25C1321.24 59.75 1330.82 70.4167 1337.32 84.25C1343.82 97.9167 1347.07 114 1347.07 132.5C1347.07 151 1343.74 167.167 1337.07 181C1330.57 194.667 1321.07 205.333 1308.57 213C1296.07 220.667 1280.74 224.5 1262.57 224.5ZM1262.57 208.25C1270.4 208.25 1276.99 206.583 1282.32 203.25C1287.82 199.75 1292.24 194.75 1295.57 188.25C1298.9 181.75 1301.32 173.833 1302.82 164.5C1304.32 155.167 1305.07 144.5 1305.07 132.5C1305.07 120.5 1304.32 109.833 1302.82 100.5C1301.32 91.1667 1298.9 83.25 1295.57 76.75C1292.24 70.25 1287.9 65.3333 1282.57 62C1277.24 58.6667 1270.65 57 1262.82 57C1254.99 57 1248.32 58.6667 1242.82 62C1237.32 65.3333 1232.9 70.25 1229.57 76.75C1226.24 83.25 1223.74 91.1667 1222.07 100.5C1220.57 109.833 1219.82 120.5 1219.82 132.5C1219.82 144.5 1220.57 155.167 1222.07 164.5C1223.74 173.833 1226.24 181.75 1229.57 188.25C1232.9 194.75 1237.32 199.75 1242.82 203.25C1248.32 206.583 1254.9 208.25 1262.57 208.25Z" fill="white"/>
</svg>
